<svg xmlns="http://www.w3.org/2000/svg" xmlns:xlink="http://www.w3.org/1999/xlink" version="1.1" x="0px" y="0px" viewBox="0 0 100 125" enable-background="new 0 0 100 100" xml:space="preserve"><path d="M94.505,40.259l-1.657-0.964C88.06,37.05,83.034,35.909,78,35.856v-4.481C78,29.514,76.486,28,74.625,28h-4.25  C68.514,28,67,29.514,67,31.375v6.142c-1.554,0.492-3.095,1.079-4.61,1.79l-1.838,0.922C60.214,40.397,60,40.744,60,41.122v6.884  l-2-0.887V14.508C58,11.893,55.745,10,53.13,10H29.663C27.048,10,25,11.893,25,14.508v0.091c-6,0.122-11.227,1.252-16.557,3.418  l-2.549,0.926C5.517,19.096,5,19.462,5,19.869V58.71c0,0.24,0.337,0.473,0.493,0.654L12,66.599V88h-1c-0.553,0-1,0.447-1,1  s0.447,1,1,1h4c0.553,0,1-0.447,1-1s-0.447-1-1-1h-1v-6h24v6h-1c-0.553,0-1,0.447-1,1s0.447,1,1,1h4c0.553,0,1-0.447,1-1  s-0.447-1-1-1h-1V66.416l5.928-7.051C46.084,59.183,46,58.95,46,58.71V19.869c0-0.407-0.076-0.773-0.453-0.927l-2.154-0.926  C38.062,15.851,33,14.72,27,14.599v-0.091C27,12.996,28.151,12,29.663,12H53.13c1.512,0,2.87,0.996,2.87,2.508V32h-1.844  c-0.457-0.943-1.415-1.6-2.532-1.6c-1.555,0-2.82,1.266-2.82,2.82s1.266,2.82,2.82,2.82c1.283,0,2.357-0.867,2.698-2.041H56v13.12  l-6.526,2.778C49.102,50.053,49,50.417,49,50.82v26.282C49,77.655,49.322,78,49.875,78H52v10h-1c-0.553,0-1,0.447-1,1s0.447,1,1,1h4  c0.553,0,1-0.447,1-1s-0.447-1-1-1h-1V78h2v5c0,0.553,0.447,1,1,1h6v4h-1c-0.553,0-1,0.447-1,1s0.447,1,1,1h4c0.553,0,1-0.447,1-1  s-0.447-1-1-1h-1v-4h3c0.553,0,1-0.447,1-1v-2h21v7h-1c-0.553,0-1,0.447-1,1s0.447,1,1,1h4c0.553,0,1-0.447,1-1s-0.447-1-1-1h-1v-7  h2c0.553,0,1-0.447,1-1V41.122C95,40.767,94.812,40.438,94.505,40.259z M40.345,19H11.497c4.629-1.59,9.424-2.398,14.223-2.419  c0.067,0.014,0.13,0.041,0.201,0.041c0.071,0,0.134-0.026,0.201-0.041C30.92,16.603,35.716,17.41,40.345,19z M7,58V21h37v37H7z   M14,68.911L23.591,80H14V68.911z M38,80h-9.749L38,68.728V80z M39.641,60.891c-0.406-0.372-1.194-0.221-1.557,0.197l-2.616,3.025  c-0.36,0.418-0.315,1.05,0.103,1.411c0.189,0.163,0.422,0.243,0.654,0.243c0.28,0,0.559-0.117,0.757-0.346L38,64.244v1.426  L25.921,79.637L14,65.853v-1.12l0.596,0.689c0.197,0.229,0.476,0.346,0.756,0.346c0.232,0,0.465-0.08,0.654-0.244  c0.418-0.361,0.463-0.992,0.102-1.41l-2.26-2.612c-0.063-0.106-0.14-0.197-0.236-0.273l-0.121-0.14  c-0.36-0.418-0.992-0.463-1.41-0.102s-0.463,0.992-0.102,1.41L12,62.421v1.12L8.937,60h33.967L40,63.358V62  C40,61.755,40.016,61.234,39.641,60.891z M51.624,34.041c-0.452,0-0.82-0.368-0.82-0.82s0.368-0.82,0.82-0.82  c0.453,0,0.821,0.368,0.821,0.82S52.077,34.041,51.624,34.041z M69,50h1.482c0.341,1.174,1.415,2.041,2.698,2.041  c1.555,0,2.82-1.266,2.82-2.82s-1.266-2.82-2.82-2.82c-1.116,0-2.075,0.657-2.532,1.6H69v-8.992  c7.575-2.046,15.49-1.379,22.772,1.992H75c-0.553,0-1,0.447-1,1s0.447,1,1,1h18v14.623c-1.627-0.768-3.359-0.352-4.401,0.063  c-0.545-0.821-1.579-1.904-3.355-2.231c-2.212-0.407-3.8,0.676-5.17,1.989c-1.512,0.132-2.581,0.944-3.222,1.621  C76.139,58.563,75.035,58,73.667,58c-1.626,0-2.9,1.22-3.649,2.175c-0.275-0.211-0.623-0.413-1.018-0.586V50z M72.358,49.221  c0-0.452,0.368-0.82,0.821-0.82c0.452,0,0.82,0.368,0.82,0.82s-0.368,0.82-0.82,0.82C72.727,50.041,72.358,49.673,72.358,49.221z   M69,31.375C69,30.617,69.617,30,70.375,30h4.25C75.383,30,76,30.617,76,31.375v4.517c-2.346,0.111-4.686,0.467-7,1.055V31.375z   M62,41.739l1.263-0.634c1.23-0.577,2.478-1.071,3.737-1.495v19.557c-0.743,0-1,0.168-2,0.412V50.82  c0-0.403-0.166-0.768-0.538-0.923L62,48.839V41.739z M67,79h-5v-1h2.042C64.594,78,65,77.658,65,77.105V62.223  c0-0.318,0.837-1.056,2-1.056V79z M51,51.487l6-2.618l6,2.618V76H51V51.487z M58,82v-4h2v2c0,0.553,0.447,1,1,1h2v1H58z M67,82h-2  v-1h2V82z M69,79V61.922c0.207,0.189,0.314,0.343,0.322,0.356c0.19,0.298,0.532,0.473,0.876,0.463  c0.353-0.011,0.674-0.208,0.845-0.518C71.362,61.647,72.529,60,73.667,60c1.507,0,2.579,1.157,2.586,1.164  c0.212,0.24,0.524,0.356,0.849,0.328c0.319-0.032,0.605-0.219,0.767-0.496c0.037-0.064,0.933-1.571,2.632-1.571  c0.265,0,0.52-0.105,0.707-0.293c1.49-1.489,2.46-1.937,3.674-1.711c1.746,0.321,2.319,1.848,2.34,1.903  c0.099,0.286,0.322,0.511,0.605,0.614c0.282,0.103,0.6,0.072,0.859-0.083c0.023-0.014,2.421-1.429,4.002-0.092  c0.095,0.08,0.202,0.132,0.313,0.172V79H69z M81.417,66.167c-0.598,0-1.083,0.485-1.083,1.083c0,0.598,0.485,1.083,1.083,1.083  c0.598,0,1.083-0.485,1.083-1.083C82.5,66.652,82.015,66.167,81.417,66.167z M87.167,71.833c-0.736,0-1.333,0.597-1.333,1.333  c0,0.736,0.597,1.333,1.333,1.333s1.333-0.597,1.333-1.333C88.5,72.43,87.903,71.833,87.167,71.833z M87.866,64.768  c-0.386,0-0.699,0.313-0.699,0.699s0.313,0.699,0.699,0.699s0.699-0.313,0.699-0.699S88.252,64.768,87.866,64.768z M19,25h-8  c-0.553,0-1,0.447-1,1s0.447,1,1,1h8c0.553,0,1-0.447,1-1S19.553,25,19,25z M15,30h-4c-0.553,0-1,0.447-1,1s0.447,1,1,1h4  c0.553,0,1-0.447,1-1S15.553,30,15,30z M56.872,57.184c-2.298,0-4.168,1.87-4.168,4.168c0,2.299,1.87,4.169,4.168,4.169  c2.299,0,4.169-1.87,4.169-4.169C61.041,59.054,59.171,57.184,56.872,57.184z M56.872,63.521c-1.195,0-2.168-0.973-2.168-2.169  c0-1.195,0.973-2.168,2.168-2.168c1.196,0,2.169,0.973,2.169,2.168C59.041,62.548,58.068,63.521,56.872,63.521z"/></svg>