<svg xmlns="http://www.w3.org/2000/svg" xmlns:xlink="http://www.w3.org/1999/xlink" version="1.1" x="0px" y="0px" viewBox="0 0 100 125" enable-background="new 0 0 100 100" xml:space="preserve"><rect x="24.8" y="33" width="2.1" height="43.9"/><rect x="29.4" y="27.1" transform="matrix(0.5997 0.8002 -0.8002 0.5997 36.7501 -11.4304)" width="0.7" height="7.9"/><rect x="21.5" y="27.1" transform="matrix(-0.5997 0.8002 -0.8002 -0.5997 59.8217 32.1513)" width="0.7" height="7.8"/><rect x="12.1" y="27.2" width="27.9" height="1.7"/><path d="M13.1,27.2v-1.4c0,0,0-0.6,0.7-0.6c0.7,0,0.7,0.6,0.7,0.6v1.4H13.1z"/><path d="M16.4,27.2v-1.4c0,0,0-0.6,0.7-0.6s0.7,0.6,0.7,0.6v1.4H16.4z"/><path d="M34.3,27.2v-1.4c0,0,0-0.6,0.7-0.6s0.7,0.6,0.7,0.6v1.4H34.3z"/><path d="M37.6,27.2v-1.4c0,0,0-0.6,0.7-0.6s0.7,0.6,0.7,0.6v1.4H37.6z"/><path d="M40.1,28.7"/><path d="M58.8,35.6c-5.3,0-9.4-0.9-12.2-2.1c-5.1-2.2-7.5-4.6-7.6-4.7l0.8-0.8c0.1,0.1,9.3,11.5,30.1,5.7l0.2-0.1l0.3,1.1l-0.3-1  C65.9,35,62.2,35.6,58.8,35.6z"/><path d="M42.1,36c-6.2,0-11-1-14.3-2.4c-5.9-2.5-8.8-5.1-9-5.2l1-0.8c0.1,0.1,10.9,12.8,35.4,6.4l0.3-0.1l0,0.1  C50.3,35.3,46,36,42.1,36z"/><rect x="61.9" y="37.5" width="1.2" height="28.5"/><rect x="64.7" y="34.1" transform="matrix(0.5997 0.8002 -0.8002 0.5997 55.0803 -37.3499)" width="0.4" height="4.6"/><rect x="60" y="34.1" transform="matrix(-0.5997 0.8002 -0.8002 -0.5997 125.5004 10.0106)" width="0.4" height="4.6"/><rect x="54.6" y="34.2" width="16.3" height="1"/><path d="M55.1,34.2v-0.8c0,0,0-0.4,0.4-0.4s0.4,0.4,0.4,0.4v0.8H55.1z"/><path d="M57.1,34.2v-0.8c0,0,0-0.4,0.4-0.4s0.4,0.4,0.4,0.4v0.8H57.1z"/><path d="M67.5,34.2v-0.8c0,0,0-0.4,0.4-0.4s0.4,0.4,0.4,0.4v0.8H67.5z"/><path d="M69.4,34.2v-0.8c0,0,0-0.4,0.4-0.4s0.4,0.4,0.4,0.4v0.8H69.4z"/><path d="M83.6,40.8c-4-0.8-6.9-1.9-8.9-3c-3.6-1.9-5.2-3.5-5.2-3.5l0.7-0.2c0.1,0.1,5.7,7.2,22,7.6l0.2,0l0,0.1  C89,41.6,86.2,41.4,83.6,40.8z"/><path d="M74,40.3c-4.5-0.7-7.8-1.6-10.1-2.5c-4.1-1.6-6.1-2.9-6.1-3l0.8-0.2c0.1,0.1,7,6,25,6.4l0.2,0l0,0.1  C80,41,76.8,40.8,74,40.3z"/><rect x="87.6" y="43.5" width="0.7" height="15.4"/><rect x="89.2" y="41.4" transform="matrix(0.5997 0.8002 -0.8002 0.5997 70.0054 -54.3527)" width="0.3" height="2.8"/><rect x="86.4" y="41.4" transform="matrix(-0.5997 0.8002 -0.8002 -0.5997 172.7192 -0.7808)" width="0.3" height="2.7"/><rect x="83.1" y="41.5" width="9.8" height="0.6"/><path d="M83.5,41.5V41c0,0,0-0.2,0.3-0.2S84,41,84,41v0.5H83.5z"/><path d="M84.6,41.5V41c0,0,0-0.2,0.3-0.2c0.3,0,0.3,0.2,0.3,0.2v0.5H84.6z"/><path d="M90.9,41.5V41c0,0,0-0.2,0.3-0.2c0.3,0,0.3,0.2,0.3,0.2v0.5H90.9z"/><path d="M92.1,41.5V41c0,0,0-0.2,0.3-0.2s0.3,0.2,0.3,0.2v0.5H92.1z"/></svg>