<svg xmlns="http://www.w3.org/2000/svg" xmlns:xlink="http://www.w3.org/1999/xlink" version="1.1" x="0px" y="0px" viewBox="0 0 100 125" style="enable-background:new 0 0 100 100;" xml:space="preserve"><g><g><path d="M34.4,5.1c-1.8-0.6-3.8,0.5-4.3,2.3L5.1,90.5c-0.5,1.8,0.5,3.8,2.3,4.3C7.8,95,8.1,95,8.5,95c1.5,0,2.9-1,3.3-2.5    L36.7,9.5C37.2,7.6,36.2,5.7,34.4,5.1z"/><path d="M94.9,90.5L69.9,7.5c-0.5-1.8-2.5-2.9-4.3-2.3c-1.8,0.5-2.9,2.5-2.3,4.3l24.9,83.1C88.7,94,90,95,91.5,95    c0.3,0,0.7,0,1-0.1C94.4,94.3,95.4,92.4,94.9,90.5z"/><path d="M52.3,60.2c-0.1-1.2-1.1-2.1-2.3-2.1s-2.2,0.9-2.3,2.1l-2.1,27c0,0.6,0.2,1.3,0.6,1.7c0.4,0.5,1.1,0.7,1.7,0.7h4.2    c0.6,0,1.3-0.3,1.7-0.7c0.4-0.5,0.7-1.1,0.6-1.7L52.3,60.2z"/><path d="M50,30.2c-0.6,0-1.1,0.4-1.1,1l-2.1,16.6c0,0.3,0.1,0.7,0.3,0.9c0.2,0.2,0.5,0.4,0.9,0.4h4.2c0.3,0,0.6-0.1,0.9-0.4    c0.2-0.2,0.3-0.6,0.3-0.9l-2.1-16.6C51.1,30.6,50.6,30.2,50,30.2z"/><path d="M47.9,22.1h4.2c0.4,0,0.7-0.2,0.9-0.4c0.2-0.3,0.3-0.6,0.2-1l-2.1-8.3c-0.1-0.5-0.6-0.9-1.1-0.9c-0.5,0-1,0.4-1.1,0.9    l-2.1,8.3c-0.1,0.3,0,0.7,0.2,1C47.2,21.9,47.6,22.1,47.9,22.1z"/></g></g></svg>