<svg xmlns="http://www.w3.org/2000/svg" xmlns:xlink="http://www.w3.org/1999/xlink" version="1.1" x="0px" y="0px" viewBox="0 0 24 30" style="enable-background:new 0 0 24 24;" xml:space="preserve"><g><path d="M20,15.01c-1.172,0-2.32-0.183-3.408-0.542c-0.521-0.182-1.163-0.017-1.483,0.314l-2.157,1.629   c-2.475-1.321-4.059-2.904-5.362-5.361l1.585-2.106c0.399-0.399,0.542-0.983,0.371-1.53C9.184,6.319,9,5.17,9,4   c0-0.827-0.673-1.5-1.5-1.5H4C3.173,2.5,2.5,3.173,2.5,4c0,9.649,7.851,17.5,17.5,17.5c0.827,0,1.5-0.673,1.5-1.5v-3.49   C21.5,15.683,20.827,15.01,20,15.01z"/><path d="M14,5.5h2.793l-1.146,1.146c-0.195,0.195-0.195,0.512,0,0.707C15.744,7.451,15.872,7.5,16,7.5s0.256-0.049,0.354-0.146   l1.999-1.999c0.046-0.046,0.083-0.102,0.109-0.163c0.051-0.122,0.051-0.26,0-0.382c-0.025-0.062-0.062-0.117-0.109-0.163   l-1.999-1.999c-0.195-0.195-0.512-0.195-0.707,0s-0.195,0.512,0,0.707L16.793,4.5H14c-0.276,0-0.5,0.224-0.5,0.5S13.724,5.5,14,5.5   z"/><path d="M20.293,5l-1.646,1.646c-0.195,0.195-0.195,0.512,0,0.707C18.744,7.451,18.872,7.5,19,7.5s0.256-0.049,0.354-0.146l2-2   c0.195-0.195,0.195-0.512,0-0.707l-2-2c-0.195-0.195-0.512-0.195-0.707,0s-0.195,0.512,0,0.707L20.293,5z"/></g></svg>